{"title":"The.Noite.2018.05.25.720p.WEB-DL.x264-Skylane77","magnet":"magnet:?xt=urn:btih:beb22eeddc88307b6b16f61b68710ab6ca777d39&dn=The.Noite.2018.05.25.720p.WEB-DL.x264-Skylane77&tr=udp%3A%2F%2Ftracker.leechers-paradise.org%3A6969&tr=udp%3A%2F%2Fzer0day.ch%3A1337&tr=udp%3A%2F%2Fopen.demonii.com%3A1337&tr=udp%3A%2F%2Ftracker.coppersurfer.tk%3A6969&tr=udp%3A%2F%2Fexodus.desync.com%3A6969","uploader":"beechbaron77","categoryP":"video","categoryS":"tv_shows","size":"708719899","seeders":"2","leechers":"3","description":"Manu Gavassi; Alessandra Dutra\r\n\r\nEntrevista com a cantora e compositora Manoela Latini Gavassi Francisco, mais conhecida como Manu Gavassi; entrevista com a psic&#xF3;loga do esporte e preparadora do COB Alessandra Dutra; Manu Gavassi canta &quot;Ningu&#xE9;m Vai Saber&quot; com Agir.\r\n\r\n--\r\nGeneral\r\nComplete name: The.Noite.com.Danilo.Gentili.2018.05.25.720p.WEB-DL.x264-Skylane77.mp4\r\nFormat: MPEG-4\r\nFormat profile: Base Media\r\nCodec ID: isom (isom/iso2/avc1/mp41)\r\nFile size: 676 MiB\r\nDuration: 51 min 50 s\r\nOverall bit rate: 1 823 kb/s\r\nWriting application: Lavf58.12.100\r\n\r\nVideo\r\nID: 1\r\nFormat: AVC\r\nFormat/Info: Advanced Video Codec\r\nFormat profile: Main@L3.1\r\nFormat settings: CABAC / 3 Ref Frames\r\nFormat settings, CABAC: Yes\r\nFormat settings, ReFrames: 3 frames\r\nCodec ID: avc1\r\nCodec ID/Info: Advanced Video Coding\r\nDuration: 51 min 50 s\r\nBit rate: 1 689 kb/s\r\nWidth: 1 280 pixels\r\nHeight: 720 pixels\r\nDisplay aspect ratio: 16:9\r\nFrame rate mode: Constant\r\nFrame rate: 30.000 FPS\r\nColor space: YUV\r\nChroma subsampling: 4:2:0\r\nBit depth: 8 bits\r\nScan type: Progressive\r\nBits/(Pixel*Frame): 0.061\r\nStream size: 626 MiB (93%)\r\nColor range: Limited\r\nColor primaries: BT.709\r\nTransfer characteristics: BT.709\r\nMatrix coefficients: BT.709\r\n\r\nAudio\r\nID: 2\r\nFormat: AAC\r\nFormat/Info: Advanced Audio Codec\r\nFormat profile: LC\r\nCodec ID: mp4a-40-2\r\nDuration: 51 min 50 s\r\nBit rate mode: Constant\r\nBit rate: 126 kb/s\r\nChannel(s): 2 channels\r\nChannel positions: Front: L R\r\nSampling rate: 44.1 kHz\r\nFrame rate: 43.066 FPS (1024 SPF)\r\nCompression mode: Lossy\r\nStream size: 46.6 MiB (7%)\r\nDefault: Yes\r\nAlternate group: 1","last_updated":"2018-05-27T12:10:44.401Z","parsed":{"xt":"urn:btih:beb22eeddc88307b6b16f61b68710ab6ca777d39","dn":"The.Noite.2018.05.25.720p.WEB-DL.x264-Skylane77","tr":["udp://exodus.desync.com:6969","udp://open.demonii.com:1337","udp://tracker.coppersurfer.tk:6969","udp://tracker.leechers-paradise.org:6969","udp://zer0day.ch:1337"],"infoHash":"beb22eeddc88307b6b16f61b68710ab6ca777d39","infoHashBuffer":{"type":"Buffer","data":[190,178,46,237,220,136,48,123,107,22,246,27,104,113,10,182,202,119,125,57]},"name":"The.Noite.2018.05.25.720p.WEB-DL.x264-Skylane77","announce":["udp://exodus.desync.com:6969","udp://open.demonii.com:1337","udp://tracker.coppersurfer.tk:6969","udp://tracker.leechers-paradise.org:6969","udp://zer0day.ch:1337"],"urlList":[]}}